<?xml version="1.0" standalone="no"?><!DOCTYPE svg PUBLIC "-//W3C//DTD SVG 1.1//EN" "http://www.w3.org/Graphics/SVG/1.1/DTD/svg11.dtd"><svg t="1701872563620" class="icon" viewBox="0 0 1024 1024" version="1.1" xmlns="http://www.w3.org/2000/svg" p-id="4498" width="64" height="64" xmlns:xlink="http://www.w3.org/1999/xlink"><path d="M418.909091 605.090909m-395.636364 0a395.636364 395.636364 0 1 0 791.272728 0 395.636364 395.636364 0 1 0-791.272728 0Z" fill="#F37321" p-id="4499"></path><path d="M439.854545 186.181818c-11.636364-79.127273-79.127273-139.636364-160.581818-139.636363-13.963636 0-23.272727 9.309091-23.272727 23.272727s9.309091 23.272727 23.272727 23.272727c55.854545 0 104.727273 39.563636 114.036364 95.418182C174.545455 200.145455 0 381.672727 0 605.090909c0 230.4 188.509091 418.909091 418.909091 418.909091s418.909091-188.509091 418.909091-418.909091c0-223.418182-176.872727-407.272727-397.963637-418.909091zM418.909091 977.454545C214.109091 977.454545 46.545455 809.890909 46.545455 605.090909s167.563636-372.363636 372.363636-372.363636 372.363636 167.563636 372.363636 372.363636-167.563636 372.363636-372.363636 372.363636z" fill="#014463" p-id="4500"></path><path d="M644.654545 309.527273c48.872727 62.836364 76.8 139.636364 76.8 225.745454 0 204.8-167.563636 372.363636-372.363636 372.363637-86.109091 0-162.909091-27.927273-225.745454-76.8C190.836364 919.272727 297.890909 977.454545 418.909091 977.454545c204.8 0 372.363636-167.563636 372.363636-372.363636 0-121.018182-58.181818-228.072727-146.618182-295.563636z" fill="#EB5C24" p-id="4501"></path><path d="M605.090909 1000.727273c-209.454545 0-381.672727-162.909091-395.636364-370.036364V605.090909h791.272728v25.6C986.763636 837.818182 814.545455 1000.727273 605.090909 1000.727273z" fill="#FFEDA9" p-id="4502"></path><path d="M605.090909 1024c-230.4 0-418.909091-188.509091-418.909091-418.909091 0-13.963636 9.309091-23.272727 23.272727-23.272727h791.272728c13.963636 0 23.272727 9.309091 23.272727 23.272727 0 230.4-188.509091 418.909091-418.909091 418.909091zM232.727273 628.363636c11.636364 195.490909 174.545455 349.090909 372.363636 349.090909s360.727273-153.6 372.363636-349.090909H232.727273z" fill="#014463" p-id="4503"></path><path d="M418.909091 209.454545V186.181818c0-41.890909 16.290909-86.109091 46.545454-116.363636 30.254545-30.254545 72.145455-46.545455 114.036364-46.545455h23.272727l2.327273 23.272728c0 41.890909-16.290909 86.109091-46.545454 116.363636-30.254545 30.254545-69.818182 46.545455-114.036364 46.545454H418.909091z" fill="#90C962" p-id="4504"></path><path d="M444.509091 232.727273c-9.309091 0-18.618182 0-27.927273-2.327273-9.309091-2.327273-18.618182-9.309091-18.618182-18.618182-9.309091-55.854545 11.636364-116.363636 51.2-155.927273C491.054545 13.963636 549.236364-4.654545 605.090909 4.654545c9.309091 2.327273 18.618182 9.309091 18.618182 18.618182 9.309091 55.854545-11.636364 116.363636-51.2 155.927273-32.581818 34.909091-81.454545 53.527273-128 53.527273zM442.181818 186.181818c37.236364 0 72.145455-13.963636 100.072727-39.563636C567.854545 118.690909 581.818182 83.781818 581.818182 46.545455c-37.236364 0-72.145455 13.963636-100.072727 39.563636S442.181818 148.945455 442.181818 186.181818z" fill="#014463" p-id="4505"></path><path d="M444.509091 162.909091c34.909091 0 69.818182-13.963636 97.745454-39.563636 20.945455-20.945455 34.909091-46.545455 39.563637-74.472728h2.327273c0 37.236364-13.963636 72.145455-39.563637 100.072728C514.327273 172.218182 479.418182 186.181818 442.181818 186.181818c0-6.981818 0-16.290909 2.327273-23.272727z" fill="#71B956" p-id="4506"></path><path d="M928.581818 628.363636H660.945455l172.218181 172.218182c9.309091 9.309091 27.927273 9.309091 34.909091-2.327273 34.909091-48.872727 58.181818-107.054545 60.509091-169.890909zM581.818182 902.981818V660.945455l-172.218182 172.218181c-9.309091 9.309091-9.309091 27.927273 2.327273 34.909091 41.890909 30.254545 88.436364 51.2 141.963636 58.181818 13.963636 2.327273 27.927273-9.309091 27.927273-23.272727zM628.363636 660.945455v242.036363c0 13.963636 13.963636 25.6 27.927273 23.272727 51.2-9.309091 100.072727-27.927273 141.963636-58.181818 11.636364-9.309091 13.963636-25.6 2.327273-34.909091L628.363636 660.945455zM549.236364 628.363636H281.6c4.654545 62.836364 25.6 121.018182 60.509091 167.563637 9.309091 11.636364 25.6 13.963636 34.909091 2.327272l172.218182-169.890909z" fill="#F79433" p-id="4507"></path><path d="M186.181818 435.2c-4.654545 0-11.636364-2.327273-13.963636-4.654545-9.309091-9.309091-11.636364-23.272727-2.327273-32.581819 32.581818-39.563636 76.8-72.145455 125.672727-93.090909 11.636364-4.654545 25.6 0 30.254546 11.636364 4.654545 11.636364 0 25.6-11.636364 30.254545-41.890909 16.290909-79.127273 44.218182-107.054545 79.127273-6.981818 6.981818-13.963636 9.309091-20.945455 9.309091zM123.345455 558.545455h-4.654546c-11.636364-2.327273-20.945455-16.290909-16.290909-27.927273 4.654545-16.290909 9.309091-34.909091 16.290909-51.2 4.654545-11.636364 18.618182-16.290909 30.254546-11.636364 11.636364 4.654545 18.618182 18.618182 11.636363 30.254546-6.981818 13.963636-11.636364 27.927273-13.963636 44.218181-2.327273 9.309091-11.636364 16.290909-23.272727 16.29091z" fill="#F79548" p-id="4508"></path><path d="M605.090909 418.909091m-23.272727 0a23.272727 23.272727 0 1 0 46.545454 0 23.272727 23.272727 0 1 0-46.545454 0Z" fill="#EB5C24" p-id="4509"></path><path d="M535.272727 488.727273m-23.272727 0a23.272727 23.272727 0 1 0 46.545455 0 23.272727 23.272727 0 1 0-46.545455 0Z" fill="#EB5C24" p-id="4510"></path><path d="M465.454545 418.909091m-23.272727 0a23.272727 23.272727 0 1 0 46.545455 0 23.272727 23.272727 0 1 0-46.545455 0Z" fill="#EB5C24" p-id="4511"></path></svg>