<?xml version="1.0" standalone="no"?><!DOCTYPE svg PUBLIC "-//W3C//DTD SVG 1.1//EN" "http://www.w3.org/Graphics/SVG/1.1/DTD/svg11.dtd"><svg t="1700894790600" class="icon" viewBox="0 0 1024 1024" version="1.1" xmlns="http://www.w3.org/2000/svg" p-id="9140" width="32" height="32" xmlns:xlink="http://www.w3.org/1999/xlink"><path d="M607 585.5h110v23.1H607zM607 538.1h110v22H607z" fill="#F93838" p-id="9141"></path><path d="M127.5 322.5l-100 379h869l100-379h-869z m174.2 322.2h-29.9V497.3c-8.1 9.6-16.1 18.3-24 26.2l-9.9-31.6c28.4-31.2 49.5-68 63.4-110.5l27.9 13c-7 21.1-16.2 41.3-27.6 60.6v189.7z m195.4-196.2h-88.5V486h77.8v28.8h-77.8v38.6h77.8v28.5h-77.8v62.9h-29.9V448.5h-8.2c-13 27.1-27.3 50.2-43.1 69.4l-21.1-25.4c22.7-26.7 42.5-64.1 59.2-112.2l29.9 6.8-11.8 32.4h113.6v29z m283.3 40.9H697l-9.3 5.9c-6.6 3.9-17.3 9.8-32.1 17.5h91.1v131.9H717v-10.1H607v10.1h-29.9v-98.1l-42.3 15.5-12.4-27.3c42.5-9.8 82.7-24.9 120.7-45.4H526.9v-27.6h99v-25.1h-76.4v-27.3h76.4v-26.8h29.9v26.8h60.6v27.3h-60.6v25.1h32.1c26.5-19 48.7-39.5 66.5-61.5l22.3 16.4c-12.8 15.6-27.3 30.6-43.4 45.1h47.1v27.6z" fill="#F93838" p-id="9142"></path></svg>